<svg width="1440" height="960" viewBox="0 0 1440 960" fill="none" xmlns="http://www.w3.org/2000/svg">
<path d="M0.999772 28.8552C3.79592 35.2893 8.76686 44.0795 17.5696 52.2353C60.3403 91.7458 151.06 72.2624 203.98 60.3912C330.842 31.9363 338.506 -2.3182 414.209 2.39407C460.086 5.2033 504.1 21.0619 540.553 34.1112C590.366 51.9635 616.05 67.7314 633.759 75.7966C757.721 131.8 874.642 -19.4455 1060.43 2.1222C1189.26 17.0746 1220.12 99.358 1334.87 85.4024C1404.67 76.9747 1434.67 45.8378 1439.67 45.8378C1440.81 401.251 1438.53 604.587 1439.67 960H0L0.999772 28.8552Z" fill="#82C3FF"/>
</svg>
