<svg width="816" height="967" viewBox="0 0 816 967" fill="none" xmlns="http://www.w3.org/2000/svg">
<path d="M0.103525 35.6631C9.10107 44.7212 26.3722 59.8483 52.4341 68.0912C134.86 94.2692 199.808 4.32195 350.284 0.155208C372.83 -0.478861 389.48 0.970441 399.926 1.96684C426.091 4.41253 574.602 17.9997 662.613 122.44C691.984 157.223 703.877 189.561 713.289 214.833C730.767 262.026 731.904 302.516 733.973 383.314C733.973 383.314 736.248 471.722 723.631 557.412C722.39 565.926 720.942 574.713 720.942 574.713C720.218 579.423 719.701 581.869 719.184 585.13C719.184 585.13 718.563 589.477 717.942 594.007C686.71 844.373 738.064 924.633 738.064 924.633C744.564 934.575 760.566 967.419 800.069 966.996C809.57 966.894 678.559 966.37 789.068 966.996C510.044 965.417 921.079 966.996 789.068 966.996C418.036 966.996 904.578 966.745 0 966.564C0.10342 618.46 0.103525 383.948 0.103525 35.6631Z" fill="#FFCAAA"/>
</svg>
